These files were ripped from a collection of VCDs. Here is the content of the
MediaInfo tab on MPC-HC's Properties dialog for the first file:

General
Complete name                    : H:\tv\Haier Brothers (海尔兄弟)\disc01_1-7.mpg
Format                           : CDXA/MPEG-PS
File size                        : 631 MiB
Duration                         : 1h 2mn
Overall bit rate                 : 1 412 Kbps

Video
ID                               : 224 (0xE0)
Format                           : MPEG Video
Format version                   : Version 1
Format settings, BVOP            : Yes
Format settings, Matrix          : Default
Duration                         : 1h 2mn
Bit rate                         : 1 120 Kbps
Width                            : 352 pixels
Height                           : 288 pixels
Display aspect ratio             : 4:3
Frame rate                       : 25.000 fps
Standard                         : PAL
Color space                      : YUV
Bit depth                        : 8 bits
Scan type                        : Progressive
Compression mode                 : Lossy
Bits/(Pixel*Frame)               : 0.442
Stream size                      : 501 MiB (79%)

Audio
ID                               : 192 (0xC0)
Format                           : MPEG Audio
Format version                   : Version 1
Format profile                   : Layer 2
Duration                         : 1h 2mn
Bit rate mode                    : Constant
Bit rate                         : 224 Kbps
Channel(s)                       : 2 channels
Sampling rate                    : 44.1 KHz
Compression mode                 : Lossy
Stream size                      : 100 MiB (16%)

Note, however, that not all files have the same stats.